<mxfile host="Electron" modified="2023-12-31T19:04:49.691Z" agent="Mozilla/5.0 (X11; Linux x86_64) AppleWebKit/537.36 (KHTML, like Gecko) draw.io/22.1.16 Chrome/120.0.6099.109 Electron/28.1.0 Safari/537.36" etag="VjWD6W5mGdhBum3QdvXc" version="22.1.16" type="device">
  <diagram id="n2vuuaUzYXL1pK05U7Nt" name="Page-1">
    <mxGraphModel dx="1834" dy="1283" grid="1" gridSize="10" guides="1" tooltips="1" connect="1" arrows="1" fold="1" page="0" pageScale="1" pageWidth="4500" pageHeight="4500" background="none" math="0" shadow="0">
      <root>
        <mxCell id="0" />
        <mxCell id="1" parent="0" />
        <mxCell id="node2" value="&lt;p style=&quot;margin:0px;margin-top:4px;text-align:center;&quot;&gt;&lt;b&gt;CategoryRepository&lt;/b&gt;&lt;/p&gt;&lt;hr size=&quot;1&quot;/&gt;&lt;p style=&quot;margin:0 0 0 4px;line-height:1.6;&quot;&gt;- allCategories: List&amp;lt;Category&amp;gt;&lt;/p&gt;&lt;hr size=&quot;1&quot;/&gt;&lt;p style=&quot;margin:0 0 0 4px;line-height:1.6;&quot;&gt;+ removeCategory(int): void&lt;br/&gt;+ getCategory(int): Category&lt;br/&gt;+ addProductToCategory(int, Product): void&lt;br/&gt;+ getProductsByCategory(int): List&amp;lt;Product&amp;gt;&lt;br/&gt;+ getAll(): List&amp;lt;Category&amp;gt;&lt;br/&gt;+ addNewCategory(Category): void&lt;/p&gt;" style="verticalAlign=top;align=left;overflow=fill;fontSize=14;fontFamily=Helvetica;html=1;rounded=0;shadow=0;comic=0;labelBackgroundColor=none;strokeWidth=1;" parent="1" vertex="1">
          <mxGeometry x="19" y="1160" width="530" height="327" as="geometry" />
        </mxCell>
        <mxCell id="node0" value="&lt;p style=&quot;margin:0px;margin-top:4px;text-align:center;&quot;&gt;&lt;b&gt;DbContext&lt;/b&gt;&lt;/p&gt;&lt;hr size=&quot;1&quot;/&gt;&lt;p style=&quot;margin:0 0 0 4px;line-height:1.6;&quot;&gt;+ productRepository: ProductRepository&lt;br/&gt;+ notificationRepository: NotificationRepository&lt;br/&gt;+ userRepository: UserRepository&lt;br/&gt;+ categoryRepository: CategoryRepository&lt;br/&gt;+ orderRepository: OrderRepository&lt;/p&gt;&lt;hr size=&quot;1&quot;/&gt;&lt;p style=&quot;margin:0 0 0 4px;line-height:1.6;&quot;&gt;- initializeUserRepository(): UserRepository&lt;br/&gt;- initializeOrderRepository(): OrderRepository&lt;br/&gt;- initializeCategoryRepository(): CategoryRepository&lt;br/&gt;- initializeProductRepository(): ProductRepository&lt;/p&gt;" style="verticalAlign=top;align=left;overflow=fill;fontSize=14;fontFamily=Helvetica;html=1;rounded=0;shadow=0;comic=0;labelBackgroundColor=none;strokeWidth=1;" parent="1" vertex="1">
          <mxGeometry x="-56" y="341" width="346" height="259" as="geometry" />
        </mxCell>
        <mxCell id="node5" value="&lt;p style=&quot;margin:0px;margin-top:4px;text-align:center;&quot;&gt;&lt;b&gt;NotificationRepository&lt;/b&gt;&lt;/p&gt;&lt;hr size=&quot;1&quot;/&gt;&lt;p style=&quot;margin:0 0 0 4px;line-height:1.6;&quot;&gt;- notificationCount: Map&amp;lt;String, Integer&amp;gt;&lt;br/&gt;- emailCount: Map&amp;lt;String, Integer&amp;gt;&lt;br/&gt;- smsCount: Map&amp;lt;String, Integer&amp;gt;&lt;/p&gt;&lt;hr size=&quot;1&quot;/&gt;&lt;p style=&quot;margin:0 0 0 4px;line-height:1.6;&quot;&gt;- addToEmailCountMap(String): void&lt;br/&gt;+ addNotification(Notification): void&lt;br/&gt;- getMostOccurs(Map&amp;lt;String, Integer&amp;gt;): String&lt;br/&gt;+ getMostSentNotificationTemplate(): String&lt;br/&gt;+ getMostNotifiedEmail(): String&lt;br/&gt;- addToSmsCountMap(String): void&lt;br/&gt;+ getMostNotifiedPhoneNumber(): String&lt;br/&gt;- addToNotificationCountMap(String): void&lt;/p&gt;" style="verticalAlign=top;align=left;overflow=fill;fontSize=14;fontFamily=Helvetica;html=1;rounded=0;shadow=0;comic=0;labelBackgroundColor=none;strokeWidth=1;" parent="1" vertex="1">
          <mxGeometry x="-290" y="1522" width="330" height="298" as="geometry" />
        </mxCell>
        <mxCell id="node4" value="&lt;p style=&quot;margin:0px;margin-top:4px;text-align:center;&quot;&gt;&lt;b&gt;OrderRepository&lt;/b&gt;&lt;/p&gt;&lt;hr size=&quot;1&quot;/&gt;&lt;p style=&quot;margin:0 0 0 4px;line-height:1.6;&quot;&gt;- orders: List&amp;lt;Order&amp;gt;&lt;/p&gt;&lt;hr size=&quot;1&quot;/&gt;&lt;p style=&quot;margin:0 0 0 4px;line-height:1.6;&quot;&gt;+ getAll(): List&amp;lt;Order&amp;gt;&lt;br/&gt;+ getById(int): Order&lt;br/&gt;+ getNumberOfOrders(): int&lt;br/&gt;+ createSimpleOrder(Order): void&lt;br/&gt;+ createCompoundOrder(Order): void&lt;/p&gt;" style="verticalAlign=top;align=left;overflow=fill;fontSize=14;fontFamily=Helvetica;html=1;rounded=0;shadow=0;comic=0;labelBackgroundColor=none;strokeWidth=1;" parent="1" vertex="1">
          <mxGeometry x="-300" y="-1" width="448" height="288" as="geometry" />
        </mxCell>
        <mxCell id="node3" value="&lt;p style=&quot;margin:0px;margin-top:4px;text-align:center;&quot;&gt;&lt;b&gt;ProductRepository&lt;/b&gt;&lt;/p&gt;&lt;hr size=&quot;1&quot;/&gt;&lt;p style=&quot;margin:0 0 0 4px;line-height:1.6;&quot;&gt;- products: Map&amp;lt;Product, Integer&amp;gt;&lt;/p&gt;&lt;hr size=&quot;1&quot;/&gt;&lt;p style=&quot;margin:0 0 0 4px;line-height:1.6;&quot;&gt;+ getAll(): Map&amp;lt;Product, Integer&amp;gt;&lt;br/&gt;+ getById(int): Product&lt;br/&gt;+ updateQuantity(int, int): void&lt;br/&gt;+ remove(int): void&lt;br/&gt;+ add(Product, int): void&lt;br/&gt;+ getNextId(): int&lt;/p&gt;" style="verticalAlign=top;align=left;overflow=fill;fontSize=14;fontFamily=Helvetica;html=1;rounded=0;shadow=0;comic=0;labelBackgroundColor=none;strokeWidth=1;" parent="1" vertex="1">
          <mxGeometry x="-289" y="780" width="427" height="327" as="geometry" />
        </mxCell>
        <mxCell id="node1" value="&lt;p style=&quot;margin:0px;margin-top:4px;text-align:center;&quot;&gt;&lt;b&gt;UserRepository&lt;/b&gt;&lt;/p&gt;&lt;hr size=&quot;1&quot;/&gt;&lt;p style=&quot;margin:0 0 0 4px;line-height:1.6;&quot;&gt;- users: List&amp;lt;User&amp;gt;&lt;/p&gt;&lt;hr size=&quot;1&quot;/&gt;&lt;p style=&quot;margin:0 0 0 4px;line-height:1.6;&quot;&gt;- isUsernameTaken(String): boolean&lt;br/&gt;+ registerNewUser(User): void&lt;br/&gt;+ getUserByUsername(String): User&lt;/p&gt;" style="verticalAlign=top;align=left;overflow=fill;fontSize=14;fontFamily=Helvetica;html=1;rounded=0;shadow=0;comic=0;labelBackgroundColor=none;strokeWidth=1;" parent="1" vertex="1">
          <mxGeometry x="-53" y="-242" width="434" height="210" as="geometry" />
        </mxCell>
      </root>
    </mxGraphModel>
  </diagram>
</mxfile>
